<?xml version="1.0" encoding="UTF-8"?>
<svg xmlns="http://www.w3.org/2000/svg" xmlns:xlink="http://www.w3.org/1999/xlink" width="30px" height="30px" viewBox="0 0 30 30" version="1.1">
<g id="surface1">
<path style=" stroke:none;fill-rule:nonzero;fill:rgb(0%,0%,0%);fill-opacity:1;" d="M 29.5 23.296875 L 26.285156 23.296875 L 27.402344 23 C 27.503906 22.949219 27.652344 22.898438 27.703125 22.75 C 27.75 22.597656 27.800781 22.5 27.75 22.347656 L 27.011719 19.59375 C 27.015625 19.546875 27.011719 19.496094 27.003906 19.449219 L 26.503906 17.503906 C 26.480469 17.457031 26.445312 17.398438 26.402344 17.34375 L 23.902344 8.066406 C 23.917969 7.996094 23.917969 7.925781 23.90625 7.859375 L 23.40625 5.914062 C 23.375 5.851562 23.324219 5.769531 23.269531 5.707031 L 22.554688 3.066406 C 22.507812 2.816406 22.207031 2.664062 21.957031 2.714844 L 17.109375 4.015625 C 16.859375 4.0625 16.710938 4.363281 16.761719 4.613281 L 17.839844 8.621094 C 17.4375 8.421875 16.988281 8.308594 16.511719 8.308594 L 2.023438 8.308594 C 1.824219 8.308594 1.671875 8.410156 1.574219 8.609375 C 1.472656 8.761719 1.472656 8.960938 1.574219 9.109375 L 2.171875 10.058594 C 2.621094 10.859375 2.621094 11.808594 2.171875 12.605469 L 1.730469 13.304688 L 0.523438 13.304688 C 0.324219 13.304688 0.175781 13.40625 0.0742188 13.605469 C -0.0234375 13.753906 -0.0234375 13.957031 0.0742188 14.105469 L 0.675781 15.054688 C 1.125 15.855469 1.125 16.804688 0.675781 17.601562 L 0.0742188 18.550781 C -0.0234375 18.703125 -0.0234375 18.902344 0.0742188 19.050781 C 0.175781 19.203125 0.324219 19.300781 0.523438 19.300781 L 1.699219 19.300781 L 2.171875 20.050781 C 2.621094 20.851562 2.621094 21.800781 2.171875 22.597656 L 1.730469 23.296875 L 0.523438 23.296875 C 0.226562 23.296875 0.0234375 23.496094 0.0234375 23.796875 L 0.0234375 26.796875 C 0.0234375 27.09375 0.226562 27.292969 0.523438 27.292969 L 29.5 27.292969 C 29.800781 27.292969 30 27.09375 30 26.796875 L 30 23.796875 C 30 23.496094 29.800781 23.296875 29.5 23.296875 Z M 17.171875 18.375 C 17.691406 17.835938 18.011719 17.105469 18.011719 16.304688 C 18.011719 15.5 17.691406 14.769531 17.171875 14.230469 C 17.929688 14.058594 18.585938 13.59375 19.003906 12.964844 L 20.726562 19.375 L 21.15625 21.050781 C 21.167969 21.074219 21.183594 21.09375 21.195312 21.117188 L 21.78125 23.296875 L 18.738281 23.296875 C 19.21875 22.765625 19.507812 22.066406 19.507812 21.300781 C 19.507812 19.878906 18.503906 18.679688 17.171875 18.375 Z M 22.757812 7.660156 L 18.910156 8.710938 L 18.660156 7.761719 L 22.507812 6.710938 Z M 23.023438 8.605469 L 25.320312 17.296875 L 21.457031 18.332031 L 19.488281 10.957031 C 19.453125 10.667969 19.378906 10.390625 19.265625 10.132812 L 19.144531 9.675781 Z M 21.757812 19.300781 L 25.585938 18.304688 L 25.839844 19.253906 L 22.007812 20.300781 Z M 22.757812 23.199219 L 22.230469 21.234375 L 26.089844 20.203125 L 26.601562 22.148438 Z M 21.757812 3.8125 L 22.253906 5.695312 L 18.363281 6.742188 L 17.859375 4.863281 Z M 3.023438 9.507812 L 2.921875 9.308594 L 16.511719 9.308594 C 17.335938 9.308594 18.046875 9.816406 18.351562 10.53125 L 18.492188 11.0625 C 18.503906 11.140625 18.507812 11.222656 18.507812 11.308594 C 18.507812 12.40625 17.609375 13.304688 16.511719 13.304688 L 2.921875 13.304688 L 3.023438 13.105469 C 3.671875 12.007812 3.671875 10.609375 3.023438 9.507812 Z M 1.523438 14.503906 L 1.421875 14.304688 L 15.011719 14.304688 C 16.113281 14.304688 17.011719 15.203125 17.011719 16.304688 C 17.011719 17.402344 16.113281 18.300781 15.011719 18.300781 L 1.421875 18.300781 L 1.523438 18.101562 C 2.171875 17.003906 2.171875 15.605469 1.523438 14.503906 Z M 3.023438 19.5 L 2.921875 19.300781 L 16.511719 19.300781 C 17.609375 19.300781 18.507812 20.199219 18.507812 21.300781 C 18.507812 22.398438 17.609375 23.296875 16.511719 23.296875 L 2.921875 23.296875 L 3.023438 23.097656 C 3.671875 22 3.671875 20.601562 3.023438 19.5 Z M 29 26.296875 L 1.023438 26.296875 L 1.023438 24.296875 L 29 24.296875 Z M 29 26.296875 "/>
<path style=" stroke:none;fill-rule:nonzero;fill:rgb(0%,0%,0%);fill-opacity:1;" d="M 5.519531 21.800781 L 16.511719 21.800781 C 16.8125 21.800781 17.011719 21.597656 17.011719 21.300781 C 17.011719 21 16.8125 20.800781 16.511719 20.800781 L 5.519531 20.800781 C 5.21875 20.800781 5.019531 21 5.019531 21.300781 C 5.019531 21.597656 5.21875 21.800781 5.519531 21.800781 Z M 5.519531 21.800781 "/>
<path style=" stroke:none;fill-rule:nonzero;fill:rgb(0%,0%,0%);fill-opacity:1;" d="M 4.023438 16.804688 L 15.011719 16.804688 C 15.3125 16.804688 15.511719 16.601562 15.511719 16.304688 C 15.511719 16.003906 15.3125 15.804688 15.011719 15.804688 L 4.023438 15.804688 C 3.722656 15.804688 3.523438 16.003906 3.523438 16.304688 C 3.523438 16.601562 3.722656 16.804688 4.023438 16.804688 Z M 4.023438 16.804688 "/>
<path style=" stroke:none;fill-rule:nonzero;fill:rgb(0%,0%,0%);fill-opacity:1;" d="M 5.519531 11.808594 L 16.511719 11.808594 C 16.8125 11.808594 17.011719 11.609375 17.011719 11.308594 C 17.011719 11.007812 16.8125 10.808594 16.511719 10.808594 L 5.519531 10.808594 C 5.21875 10.808594 5.019531 11.007812 5.019531 11.308594 C 5.019531 11.609375 5.21875 11.808594 5.519531 11.808594 Z M 5.519531 11.808594 "/>
<path style=" stroke:none;fill-rule:nonzero;fill:rgb(0%,0%,0%);fill-opacity:1;" d="M 21.007812 10.757812 L 22.554688 16.554688 C 22.65625 16.753906 22.855469 16.902344 23.054688 16.902344 C 23.054688 16.902344 23.105469 16.902344 23.15625 16.851562 C 23.40625 16.804688 23.554688 16.503906 23.503906 16.253906 L 21.957031 10.507812 C 21.90625 10.257812 21.605469 10.109375 21.355469 10.160156 C 21.105469 10.207031 20.957031 10.507812 21.007812 10.757812 Z M 21.007812 10.757812 "/>
</g>
</svg>
